<?xml version="1.0" encoding="UTF-8" standalone="no"?>
<svg
   xmlns:dc="http://purl.org/dc/elements/1.1/"
   xmlns:cc="http://creativecommons.org/ns#"
   xmlns:rdf="http://www.w3.org/1999/02/22-rdf-syntax-ns#"
   xmlns:svg="http://www.w3.org/2000/svg"
   xmlns="http://www.w3.org/2000/svg"
   xmlns:sodipodi="http://sodipodi.sourceforge.net/DTD/sodipodi-0.dtd"
   xmlns:inkscape="http://www.inkscape.org/namespaces/inkscape"
   version="1.1"
   id="svg5384"
   viewBox="0 0 172.16174 174.5005"
   height="174.5005"
   width="172.16174"
   inkscape:version="0.92.1 r"
   sodipodi:docname="logo-etoele.svg">
  <sodipodi:namedview
     pagecolor="#ffffff"
     bordercolor="#666666"
     borderopacity="1"
     objecttolerance="10"
     gridtolerance="10"
     guidetolerance="10"
     inkscape:pageopacity="0"
     inkscape:pageshadow="2"
     inkscape:window-width="1916"
     inkscape:window-height="1041"
     id="namedview71"
     showgrid="false"
     fit-margin-top="0"
     fit-margin-left="0"
     fit-margin-right="0"
     fit-margin-bottom="0"
     inkscape:zoom="3.38"
     inkscape:cx="12.5994"
     inkscape:cy="77.869694"
     inkscape:window-x="0"
     inkscape:window-y="18"
     inkscape:window-maximized="0"
     inkscape:current-layer="svg5384" />
  <defs
     id="defs5386">
    <clipPath
       id="clipPath18"
       clipPathUnits="userSpaceOnUse">
      <path
         id="path20"
         d="M 0,741 H 1024 V 0 H 0 Z"
         inkscape:connector-curvature="0" />
    </clipPath>
  </defs>
  <metadata
     id="metadata5389">
    <rdf:RDF>
      <cc:Work
         rdf:about="">
        <dc:format>image/svg+xml</dc:format>
        <dc:type
           rdf:resource="http://purl.org/dc/dcmitype/StillImage" />
        <dc:title></dc:title>
      </cc:Work>
    </rdf:RDF>
  </metadata>
  <g
     id="layer1"
     transform="translate(-254.00794,-131.98896)">
    <g
       transform="matrix(1.25,0,0,-1.25,116.10869,940.84508)"
       id="g14">
      <g
         clip-path="url(#clipPath18)"
         id="g16">
        <g
           transform="translate(123.7904,543.1125)"
           id="g22">
          <path
             id="path24"
             style="fill:#51586a;fill-opacity:1;fill-rule:nonzero;stroke:none"
             d="m 0,0 h 8.374 l -9.206,-8.946 h -3.797 z m 2.549,-20.284 c 0.416,2.549 -0.988,4.316 -3.381,4.316 -2.289,0 -3.849,-1.352 -4.889,-4.316 z m -8.947,-4.057 c -0.363,-3.849 2.029,-6.086 5.41,-6.086 2.185,0 4.889,0.832 8.738,2.393 l -1.248,-5.877 c -2.913,-1.093 -5.774,-1.717 -8.218,-1.717 -7.178,0 -11.755,4.525 -11.755,11.495 0,7.23 5.669,13.003 12.795,13.003 7.386,0 11.39,-5.67 9.726,-13.211 z"
             inkscape:connector-curvature="0" />
        </g>
        <g
           transform="translate(148.4424,531.5661)"
           id="g26">
          <path
             id="path28"
             style="fill:#51586a;fill-opacity:1;fill-rule:nonzero;stroke:none"
             d="M 0,0 H 5.201 L 4.265,-5.201 h -5.201 l -1.352,-7.645 c -0.469,-2.653 -0.052,-4.942 1.924,-4.942 0.936,0 1.976,0.364 4.057,1.405 v -6.19 c -2.289,-1.092 -3.953,-1.508 -6.033,-1.508 -5.826,0 -8.062,4.94 -7.178,9.882 l 1.664,8.998 h -4.785 L -11.755,0 h 4.785 l 0.833,4.993 h 7.125 z"
             inkscape:connector-curvature="0" />
        </g>
        <g
           transform="translate(169.1416,526.2615)"
           id="g30">
          <path
             id="path32"
             style="fill:#51586a;fill-opacity:1;fill-rule:nonzero;stroke:none"
             d="m 0,0 c -4.577,0 -6.033,-5.41 -6.033,-7.802 0,-3.589 2.6,-5.253 4.681,-5.253 4.057,0 6.085,4.577 6.085,7.853 C 4.733,-2.081 2.861,0 0,0 m -1.404,-18.776 c -6.71,0 -11.911,4.992 -11.911,11.39 0,7.178 6.137,13.107 13.627,13.107 6.761,0 11.703,-4.369 11.703,-11.131 0,-7.542 -5.825,-13.366 -13.419,-13.366"
             inkscape:connector-curvature="0" />
        </g>
        <g
           transform="translate(201.1268,522.8282)"
           id="g34">
          <path
             id="path36"
             style="fill:#51586a;fill-opacity:1;fill-rule:nonzero;stroke:none"
             d="M 0,0 C 0.416,2.549 -0.989,4.317 -3.381,4.317 -5.67,4.317 -7.23,2.965 -8.27,0 Z m -8.946,-4.057 c -0.364,-3.849 2.028,-6.085 5.409,-6.085 2.184,0 4.889,0.832 8.738,2.392 l -1.249,-5.877 c -2.912,-1.092 -5.773,-1.716 -8.217,-1.716 -7.178,0 -11.755,4.525 -11.755,11.494 0,7.23 5.67,13.003 12.795,13.003 7.386,0 11.39,-5.669 9.727,-13.211 z"
             inkscape:connector-curvature="0" />
        </g>
        <g
           transform="translate(218.4963,507.9529)"
           id="g38">
          <path
             id="path40"
             style="fill:#51586a;fill-opacity:1;fill-rule:nonzero;stroke:none"
             d="m 0,0 h -7.022 l 4.994,35.472 h 7.022 z"
             inkscape:connector-curvature="0" />
        </g>
        <g
           transform="translate(241.1729,522.8282)"
           id="g42">
          <path
             id="path44"
             style="fill:#51586a;fill-opacity:1;fill-rule:nonzero;stroke:none"
             d="M 0,0 C 0.416,2.549 -0.988,4.317 -3.381,4.317 -5.669,4.317 -7.23,2.965 -8.27,0 Z m -8.946,-4.057 c -0.364,-3.849 2.029,-6.085 5.409,-6.085 2.185,0 4.889,0.832 8.738,2.392 l -1.248,-5.877 c -2.913,-1.092 -5.773,-1.716 -8.217,-1.716 -7.179,0 -11.755,4.525 -11.755,11.494 0,7.23 5.669,13.003 12.795,13.003 7.385,0 11.39,-5.669 9.726,-13.211 z"
             inkscape:connector-curvature="0" />
        </g>
        <g
           transform="translate(115.7243,489.9739)"
           id="g46" />
        <g
           transform="translate(119.6444,494.0959)"
           id="g50" />
        <g
           transform="translate(123.6795,495.3174)"
           id="g54" />
        <g
           transform="translate(130.4366,495.3174)"
           id="g58" />
        <g
           transform="translate(140.2732,492.9385)"
           id="g62" />
        <g
           transform="translate(147.476,489.7068)"
           id="g66" />
        <g
           transform="translate(152.5535,489.8214)"
           id="g70" />
        <g
           transform="translate(156.715,492.9385)"
           id="g74" />
        <g
           transform="translate(163.2183,493.5488)"
           id="g78" />
        <g
           transform="translate(174.6969,489.8214)"
           id="g82" />
        <g
           transform="translate(175.7797,498.1294)"
           id="g86" />
        <g
           transform="translate(185.8452,495.3174)"
           id="g92" />
        <g
           transform="translate(194.9826,491.8697)"
           id="g96" />
        <g
           transform="translate(198.4951,491.1827)"
           id="g100" />
        <g
           transform="translate(211.8944,496.3608)"
           id="g104" />
        <g
           transform="translate(222.6225,492.3662)"
           id="g108" />
        <g
           transform="translate(227.8537,491.2586)"
           id="g112" />
        <g
           transform="translate(234.7506,491.2586)"
           id="g116" />
        <g
           transform="translate(239.5874,491.1827)"
           id="g120" />
        <g
           transform="translate(189.0307,566.8711)"
           id="g124">
          <path
             id="path126"
             style="fill:#51586a;fill-opacity:1;fill-rule:nonzero;stroke:none"
             d="m 0,0 -3.488,-0.818 2.462,-17.192 -6.522,-0.11 -6.096,18.943 -7.001,-18.801 -5.726,0.058 4.267,17.579 -4.021,-0.62 4.771,25.728 -13.312,-8.747 -0.692,5.839 17.124,15.19 0.155,0.306 c 0.474,0.946 0.865,1.681 1.192,2.29 0.537,1.01 0.927,1.741 1.205,2.518 l 0.58,1.629 -1.608,0.634 c -4.666,1.837 -7.27,6.895 -6.06,11.763 1.117,4.486 5.124,7.621 9.742,7.621 0.817,0 1.635,-0.102 2.434,-0.3 2.889,-0.72 5.14,-2.649 6.429,-5.098 -1.05,-0.223 -1.852,-1.111 -1.852,-2.227 0,-1.282 1.039,-2.321 2.322,-2.321 0.241,0 0.459,0.069 0.676,0.136 0.021,-0.881 -0.029,-1.773 -0.253,-2.669 -0.66,-2.652 -2.333,-4.876 -4.711,-6.256 l -1.265,-0.733 2.914,-8.587 21.408,11.575 3.323,-1.768 -20.99,-17.943 z m 1.138,26.09 23.609,20.139 -9.614,5.118 -19.397,-10.579 -0.687,2.027 c 2.565,1.877 4.371,4.556 5.145,7.674 1.814,7.283 -2.638,14.69 -9.924,16.506 -1.082,0.271 -2.192,0.407 -3.298,0.407 -6.263,0 -11.695,-4.249 -13.207,-10.331 -1.489,-5.98 1.27,-12.17 6.509,-15.136 -0.097,-0.18 -0.201,-0.376 -0.314,-0.589 -0.3,-0.561 -0.656,-1.229 -1.078,-2.059 l -18.007,-15.975 1.591,-13.431 11.14,7.319 -4.159,-22.434 3.719,0.571 -4.07,-16.762 12.732,-0.132 4.282,11.504 3.753,-11.662 13.221,0.223 -2.573,17.963 3.334,0.781 z"
             inkscape:connector-curvature="0" />
        </g>
        <g
           transform="translate(180.6914,621.3146)"
           id="g128">
          <path
             id="path130"
             style="fill:#51586a;fill-opacity:1;fill-rule:nonzero;stroke:none"
             d="m 0,0 c 0,1.283 -1.041,2.324 -2.322,2.324 -1.282,0 -2.323,-1.041 -2.323,-2.324 0,-1.281 1.041,-2.32 2.323,-2.32 C -1.041,-2.32 0,-1.281 0,0"
             inkscape:connector-curvature="0" />
        </g>
        <g
           transform="translate(204.1605,625.0189)"
           id="g132">
          <path
             id="path134"
             style="fill:#1997c6;fill-opacity:1;fill-rule:nonzero;stroke:none"
             d="M 0,0 5.483,-2.884 4.436,3.223 8.874,7.55 2.744,8.442 0,13.998 -2.744,8.442 -8.874,7.55 -4.437,3.223 -5.484,-2.884 Z M 10.228,-9.411 0,-4.036 -10.228,-9.411 -8.276,1.977 -16.552,10.042 -5.116,11.705 0,22.066 5.117,11.705 16.551,10.042 8.276,1.977 Z"
             inkscape:connector-curvature="0" />
        </g>
        <g
           transform="translate(159.7686,616.8778)"
           id="g136">
          <path
             id="path138"
             style="fill:#1997c6;fill-opacity:1;fill-rule:nonzero;stroke:none"
             d="m 0,0 3.275,-3.667 9.473,8.458 1.16,4.37 L 9.472,8.46 Z"
             inkscape:connector-curvature="0" />
        </g>
        <g
           transform="translate(184.373,589.9747)"
           id="g140">
          <path
             id="path142"
             style="fill:#51586a;fill-opacity:1;fill-rule:nonzero;stroke:none"
             d="M 0,0 H -7.111 V 3.574 H 0"
             inkscape:connector-curvature="0" />
        </g>
      </g>
    </g>
  </g>
</svg>
